<?xml version="1.0" standalone="no"?>
<!DOCTYPE svg PUBLIC "-//W3C//DTD SVG 20010904//EN"
 "http://www.w3.org/TR/2001/REC-SVG-20010904/DTD/svg10.dtd">
<svg version="1.0" xmlns="http://www.w3.org/2000/svg"
 width="300.000000pt" height="95.000000pt" viewBox="0 0 300.000000 95.000000"
 preserveAspectRatio="xMidYMid meet">
<metadata>
Created by potrace 1.10, written by Peter Selinger 2001-2011
</metadata>
<g transform="translate(0.000000,95.000000) scale(0.100000,-0.100000)"
fill="#000000" stroke="none">
<path d="M382 651 l3 -86 35 0 c25 0 36 -5 38 -17 3 -15 -4 -18 -35 -18 l-38
0 3 -85 3 -85 50 0 49 0 0 35 0 35 50 0 c41 0 50 -3 50 -18 0 -15 -6 -17 -36
-14 l-35 4 3 -53 3 -53 35 -1 c24 0 35 -5 35 -15 0 -11 -14 -16 -52 -18 l-53
-3 0 35 0 36 -50 0 -50 0 0 -50 c0 -44 3 -50 20 -50 19 0 20 4 14 36 -6 32 -4
36 12 32 13 -2 20 -13 22 -36 l3 -32 85 0 84 0 -1 50 c-2 50 -2 50 -36 50 -25
0 -33 4 -33 18 0 15 6 17 36 14 35 -4 37 -3 31 19 -4 13 -7 36 -7 52 l0 27
-83 0 -82 0 0 -32 c0 -23 -5 -33 -15 -33 -11 0 -16 14 -18 53 l-3 52 35 0 36
0 0 50 0 50 -35 0 -35 0 0 50 c0 38 4 50 15 50 10 0 15 -11 15 -35 l0 -35 50
0 50 0 0 35 c0 28 4 35 20 35 17 0 20 -7 20 -50 l0 -50 -35 0 -35 0 0 -50 0
-50 119 0 119 0 -1 50 c-1 50 -1 50 -34 50 -33 0 -33 0 -33 50 0 38 4 50 15
50 10 0 15 -11 15 -35 l0 -35 50 0 50 0 0 35 c0 28 4 35 19 35 15 0 19 -8 20
-50 l1 -50 -35 0 -35 0 0 -50 0 -50 36 0 35 0 -3 -52 c-2 -39 -7 -53 -18 -53
-10 0 -15 10 -15 33 l1 32 -83 0 -83 0 0 -50 0 -50 35 0 c24 0 35 -5 35 -15 0
-10 -11 -15 -35 -15 l-35 0 0 -50 0 -50 85 0 85 0 0 35 c0 24 5 35 15 35 10 0
15 -11 15 -35 0 -28 4 -35 20 -35 17 0 20 7 20 50 l0 50 -55 0 -56 0 7 -35 6
-35 -56 0 c-50 0 -56 2 -56 21 0 18 5 21 35 17 l35 -4 0 53 0 53 -35 0 c-24 0
-35 5 -35 15 0 11 12 15 50 15 l50 0 0 -35 0 -35 56 0 c47 0 55 3 50 16 -3 9
-6 47 -6 85 l0 69 -35 0 c-29 0 -35 4 -35 21 0 19 4 21 35 16 l35 -6 0 88 0
89 -50 -1 c-49 -1 -49 -1 -52 -36 -4 -49 -32 -49 -36 0 l-3 35 -50 0 -51 0 5
-85 4 -86 32 3 c26 3 31 0 31 -17 0 -20 -6 -21 -85 -21 -80 0 -85 1 -85 21 0
19 4 21 35 16 l35 -6 0 88 0 87 -50 0 -50 0 0 -39 c0 -31 -3 -38 -17 -35 -13
2 -19 14 -21 39 l-3 35 -50 0 -50 0 3 -85z"/>
<path d="M1792 682 c-23 -3 -23 -4 -20 -168 l2 -165 25 3 c25 3 26 6 24 57
l-3 54 31 -29 c17 -16 38 -41 47 -56 12 -20 24 -28 44 -28 15 0 28 3 28 7 0
11 -51 77 -76 98 l-24 21 45 49 c25 26 45 50 45 52 0 2 -13 3 -29 3 -23 0 -38
-10 -68 -47 l-38 -46 -5 99 c-5 96 -6 99 -28 96z"/>
<path d="M984 505 l1 -144 42 -7 c64 -9 132 4 159 31 32 32 32 79 -1 109 -22
21 -23 25 -10 36 25 21 19 76 -11 99 -22 17 -41 21 -104 21 l-78 0 2 -145z
m137 95 c44 -24 11 -70 -50 -70 -29 0 -31 2 -31 40 0 38 2 40 31 40 17 0 39
-5 50 -10z m17 -126 c44 -31 12 -74 -55 -74 l-43 0 0 45 0 45 38 0 c21 0 48
-7 60 -16z"/>
<path d="M1285 554 c-98 -105 40 -272 144 -175 28 26 31 35 31 86 0 49 -4 60
-29 86 -24 24 -38 29 -76 29 -37 0 -51 -5 -70 -26z m107 -31 c12 -11 18 -30
18 -59 0 -35 -5 -47 -24 -59 -60 -39 -111 62 -63 123 13 17 47 15 69 -5z"/>
<path d="M1536 549 c-46 -54 -30 -160 29 -187 96 -44 185 48 145 152 -18 47
-46 66 -99 66 -43 0 -53 -4 -75 -31z m101 -17 c13 -8 33 -55 33 -78 0 -8 -11
-26 -24 -39 -40 -40 -86 -11 -86 54 0 53 40 86 77 63z"/>
<path d="M2016 561 c-28 -30 -18 -82 19 -100 76 -39 79 -42 61 -59 -13 -13
-23 -14 -55 -6 -36 10 -40 9 -45 -10 -7 -27 9 -36 65 -36 57 0 92 24 92 63 0
34 -26 64 -63 72 -68 15 -62 60 6 52 41 -4 44 -3 44 19 0 22 -4 24 -53 24 -40
0 -58 -5 -71 -19z"/>
<path d="M2237 569 c-40 -23 -58 -98 -37 -153 19 -51 124 -86 169 -57 29 18 4
40 -44 39 -43 -1 -85 21 -85 44 0 4 34 8 76 8 l77 0 -6 41 c-8 58 -40 89 -91
89 -23 0 -49 -5 -59 -11z m93 -50 c15 -26 14 -27 -40 -30 -35 -2 -44 0 -42 12
10 42 63 54 82 18z"/>
<path d="M2424 553 c4 -15 19 -55 33 -88 13 -33 30 -72 36 -87 14 -34 -4 -58
-44 -58 -22 0 -29 -5 -29 -20 0 -17 7 -20 40 -20 26 0 47 7 59 19 19 19 56
109 90 219 l19 62 -28 0 c-24 0 -29 -5 -35 -32 -4 -18 -14 -58 -23 -88 l-15
-55 -28 85 c-24 77 -30 85 -54 88 -26 3 -27 2 -21 -25z"/>
</g>
</svg>
