<?xml version="1.0" standalone="no"?>
<!DOCTYPE svg PUBLIC "-//W3C//DTD SVG 20010904//EN"
 "http://www.w3.org/TR/2001/REC-SVG-20010904/DTD/svg10.dtd">
<svg version="1.0" xmlns="http://www.w3.org/2000/svg"
 width="278.000000pt" height="188.000000pt" viewBox="0 0 278.000000 188.000000"
 preserveAspectRatio="xMidYMid meet">
<metadata>
Created by potrace 1.10, written by Peter Selinger 2001-2011
</metadata>
<g transform="translate(0.000000,188.000000) scale(0.100000,-0.100000)"
fill="#000000" stroke="none">
<path d="M1325 1662 c-84 -53 -94 -118 -37 -224 1 -3 -6 -9 -18 -13 -11 -4
-29 -16 -40 -27 -18 -20 -21 -20 -38 -5 -17 16 -20 16 -41 -7 -13 -14 -29 -22
-37 -19 -11 4 -14 -8 -14 -54 0 -46 -4 -62 -20 -76 -27 -23 -27 -81 -1 -99 15
-11 21 -28 23 -72 l3 -59 140 -53 140 -54 65 24 c36 13 102 39 148 56 l82 32
0 56 c0 46 4 60 20 70 13 8 20 23 20 43 0 36 -17 72 -31 64 -5 -4 -9 21 -9 60
0 49 -3 65 -12 62 -7 -2 -23 5 -36 16 -20 18 -26 19 -43 9 -18 -12 -24 -10
-44 12 -13 14 -31 26 -40 26 -19 0 -19 3 5 42 34 56 20 128 -33 177 -36 33
-111 39 -152 13z m137 -41 c77 -68 15 -202 -87 -188 -56 8 -99 63 -94 120 2
20 15 44 36 65 29 29 39 33 76 30 27 -1 52 -11 69 -27z m-108 -212 c19 -9 36
-9 69 1 42 11 47 10 87 -15 l42 -27 -80 -54 c-74 -49 -112 -60 -112 -33 0 5
-7 9 -15 9 -8 0 -15 5 -15 10 0 6 -7 10 -15 10 -8 0 -15 5 -15 10 0 6 -7 10
-15 10 -8 0 -15 5 -15 10 0 6 -7 10 -16 10 -27 0 -11 32 26 51 41 22 42 22 74
8z m-127 -69 c59 -34 54 -43 -9 -18 -64 26 -62 24 -53 38 8 13 6 13 62 -20z
m388 20 c6 -9 -104 -65 -112 -57 -3 4 87 65 99 66 4 1 10 -3 13 -9z m-461 -37
c4 -5 11 -8 14 -9 4 0 14 -3 22 -6 27 -10 55 -19 60 -19 3 0 15 -7 28 -15 12
-8 22 -12 22 -8 0 4 6 2 13 -3 6 -6 24 -13 40 -17 l27 -6 0 -150 c0 -138 -1
-150 -18 -150 -10 0 -22 4 -27 9 -12 11 -175 74 -192 74 -22 1 -16 91 7 112
22 20 26 65 9 96 -5 11 -14 17 -20 14 -5 -4 -9 13 -9 39 0 44 7 55 24 39z
m496 -31 c0 -25 -7 -43 -20 -55 -27 -23 -27 -81 1 -100 16 -12 20 -23 17 -62
l-3 -48 -122 -47 -123 -48 0 152 0 151 118 47 c64 25 120 46 125 47 4 1 7 -16
7 -37z m-510 -82 c16 -30 3 -60 -26 -60 -13 0 -24 4 -24 9 0 5 -3 16 -6 24 -5
14 20 47 36 47 5 0 14 -9 20 -20z m550 0 c16 -30 3 -60 -25 -60 -33 0 -47 47
-20 67 25 18 32 17 45 -7z"/>
<path d="M1643 768 c-29 -22 -66 -63 -83 -89 -39 -64 -47 -63 -15 1 14 28 21
50 15 50 -5 0 -10 8 -10 18 0 27 -20 42 -57 42 -26 0 -34 -5 -39 -25 -3 -14
-13 -25 -21 -25 -10 0 -12 6 -8 20 5 17 2 20 -25 20 -17 0 -40 -5 -50 -10 -20
-11 -40 -66 -40 -112 0 -34 -15 -45 -18 -12 -3 42 -49 121 -74 127 -38 10 -90
-23 -115 -73 -12 -25 -25 -54 -29 -65 -6 -17 -8 -15 -14 12 -42 186 -166 165
-226 -38 -14 -46 -25 -97 -26 -112 -1 -25 -3 -27 -16 -13 -13 13 -13 20 6 65
27 62 28 120 2 171 -30 59 -70 73 -138 49 -35 -12 -37 -18 -77 -264 -32 -194
-32 -223 -1 -235 13 -5 27 -14 31 -19 3 -6 13 -11 22 -11 24 0 87 32 101 52 7
9 18 23 26 30 7 7 16 26 20 41 9 39 23 33 29 -13 6 -49 19 -65 67 -90 31 -16
39 -17 68 -5 17 8 32 21 32 30 0 8 5 15 11 15 5 0 7 5 4 10 -3 6 -1 10 5 10 6
0 9 3 7 8 -3 4 3 23 14 42 l18 35 1 -28 c0 -51 26 -94 67 -113 64 -31 92 -16
127 66 28 64 31 65 28 7 -3 -49 -1 -53 28 -69 18 -10 43 -18 56 -18 20 0 24 5
24 33 l0 32 13 -25 c7 -14 18 -25 25 -25 7 0 16 -6 21 -13 6 -10 13 -11 34 -1
32 14 31 10 13 91 -26 116 -28 154 -11 171 9 9 15 20 15 24 0 4 7 25 16 46 19
41 39 51 24 11 -19 -48 -12 -82 25 -123 19 -21 35 -48 35 -59 0 -23 -35 -52
-62 -52 -20 0 -24 -30 -8 -61 16 -28 68 -52 99 -44 14 3 40 20 57 37 l32 30 7
-31 c5 -22 12 -31 26 -31 10 0 19 -4 19 -10 0 -16 52 -11 98 10 24 11 41 24
37 30 -3 5 -1 10 4 10 6 0 11 11 11 25 0 14 -6 25 -13 25 -9 0 -12 10 -9 30 4
29 3 30 -23 20 -15 -6 -29 -9 -31 -7 -2 2 -1 20 3 40 4 26 11 37 23 37 9 0 26
8 36 18 21 19 31 62 15 62 -6 0 -11 12 -11 26 0 19 -4 25 -15 20 -10 -3 -15 1
-15 12 0 26 12 38 47 50 l32 11 -5 -32 c-3 -18 -7 -40 -9 -50 -6 -33 16 -86
47 -110 l31 -25 -13 -65 c-15 -74 -10 -86 42 -113 34 -18 60 -15 64 6 1 8 5
33 9 55 4 22 18 78 31 125 14 47 27 92 29 100 2 8 4 16 5 18 2 1 4 7 5 12 1 6
3 11 5 13 1 1 3 9 5 17 2 8 9 29 16 45 22 54 21 71 -11 104 -48 53 -70 41
-100 -51 -27 -83 -49 -121 -26 -45 8 28 10 49 5 53 -5 3 -7 10 -3 15 9 15 -16
39 -41 39 -25 0 -59 -33 -53 -52 3 -8 9 -5 17 10 6 12 21 22 32 22 18 0 20 -5
16 -27 -5 -26 -10 -53 -22 -125 -2 -15 -2 -35 1 -43 8 -21 44 -19 44 3 0 15
67 202 75 210 2 2 13 1 24 -3 23 -7 26 -29 10 -72 -6 -15 -10 -29 -10 -31 1
-1 -6 -16 -14 -32 -9 -17 -13 -30 -9 -30 4 0 1 -7 -6 -15 -7 -8 -10 -15 -6
-15 3 0 0 -16 -8 -35 -8 -19 -13 -35 -11 -35 2 0 -3 -23 -11 -52 -17 -54 -18
-58 -29 -125 -8 -48 -11 -50 -43 -27 -27 19 -27 35 -3 113 15 48 16 61 5 61
-26 0 -62 23 -73 47 -12 26 2 147 20 169 5 6 1 19 -11 32 -11 12 -20 30 -20
42 0 17 -6 20 -47 20 -66 0 -115 -26 -129 -69 -11 -33 -11 -33 -17 -10 -4 13
-17 41 -29 61 l-23 37 -52 -41z m-117 -19 c0 -8 -24 -63 -55 -124 -60 -122
-61 -131 -31 -249 17 -65 17 -72 2 -83 -36 -29 -52 -5 -70 107 -7 41 -9 43
-20 24 -6 -12 -13 -44 -16 -73 -7 -65 -11 -72 -39 -62 -20 8 -22 14 -19 72 3
54 26 211 36 244 1 6 9 39 17 74 9 45 20 68 36 78 46 30 48 7 12 -122 -22 -79
-22 -85 -10 -85 9 0 37 60 33 73 -1 4 3 7 10 7 6 0 8 3 5 6 -4 4 10 37 30 74
32 58 40 67 58 60 11 -4 20 -14 21 -21z m185 -11 c10 -40 9 -44 -12 -58 -12
-8 -39 -31 -61 -51 -50 -48 -51 -82 -3 -139 19 -23 38 -54 42 -68 9 -36 -23
-88 -71 -117 -35 -21 -43 -23 -61 -11 -30 20 -24 44 15 64 51 25 52 64 5 120
-31 36 -36 48 -34 84 2 24 12 59 23 78 23 40 120 140 135 140 6 0 15 -19 22
-42z m209 3 c0 -33 -9 -41 -53 -50 -25 -5 -32 -14 -43 -51 -18 -60 -18 -60 16
-60 25 0 30 -4 30 -23 0 -29 -18 -47 -46 -47 -18 0 -23 -9 -33 -57 -17 -86
-17 -86 29 -80 35 4 40 3 40 -15 0 -47 -45 -78 -113 -78 l-30 0 6 88 c6 74 13
127 41 287 7 39 34 93 53 104 10 6 37 11 61 11 40 0 42 -1 42 -29z m-1163 4
c40 -28 42 -131 2 -176 -23 -26 -23 -37 -4 -63 22 -29 18 -65 -11 -125 -30
-60 -89 -104 -132 -99 -27 3 -27 4 -25 73 3 96 57 385 74 396 22 14 72 10 96
-6z m236 0 c36 -35 46 -152 22 -245 -3 -14 -8 -32 -10 -40 -2 -8 -4 -16 -5
-17 -2 -2 -4 -7 -5 -13 -1 -5 -3 -12 -4 -15 0 -3 -1 -7 -1 -10 0 -3 -11 -28
-25 -55 -32 -63 -67 -80 -104 -52 -30 22 -39 48 -40 123 -2 114 41 253 95 307
35 35 55 40 77 17z m227 5 c39 -21 56 -158 29 -250 -7 -25 -13 -48 -15 -52 -1
-5 -2 -9 -3 -10 -2 -2 -5 -14 -7 -28 -3 -14 -9 -27 -14 -28 -6 -2 -8 -8 -4
-13 3 -5 0 -9 -6 -9 -6 0 -8 -4 -5 -10 3 -5 1 -10 -4 -10 -6 0 -10 -5 -9 -11
2 -6 -9 -20 -23 -31 -32 -24 -62 -18 -85 18 -24 36 -25 168 -2 264 11 43 64
144 86 161 28 22 36 23 62 9z m525 -111 c-4 -6 -15 -59 -25 -117 -12 -78 -19
-102 -25 -87 -5 11 -21 37 -36 58 -17 23 -25 45 -22 55 9 25 44 62 78 83 35
22 39 23 30 8z"/>
<path d="M697 673 c-3 -5 -8 -24 -12 -43 -3 -19 -9 -43 -12 -53 -4 -16 -2 -17
16 -8 12 7 21 18 21 26 0 8 4 15 8 15 4 0 9 16 10 35 2 25 -1 35 -12 35 -8 0
-17 -3 -19 -7z"/>
<path d="M659 478 c-1 -13 -4 -32 -13 -80 -7 -34 7 -36 38 -5 32 32 31 91 -1
95 -14 2 -23 -2 -24 -10z"/>
<path d="M921 628 c-12 -24 -24 -56 -27 -73 -3 -16 -9 -45 -14 -63 -8 -31 -5
-96 6 -113 28 -46 84 100 84 219 0 86 -15 95 -49 30z m28 -90 c-16 -84 -19
-92 -30 -102 -13 -12 -6 39 13 107 15 51 27 47 17 -5z"/>
<path d="M1165 650 c-10 -11 -15 -20 -10 -20 4 0 0 -11 -8 -24 -20 -31 -28
-64 -33 -146 -7 -101 20 -119 57 -36 23 54 39 152 32 205 -6 46 -12 50 -38 21z
m10 -155 c-17 -67 -39 -100 -29 -45 3 19 13 60 22 90 21 73 28 34 7 -45z"/>
</g>
</svg>
