<?xml version="1.0" standalone="no"?>
<!DOCTYPE svg PUBLIC "-//W3C//DTD SVG 20010904//EN"
 "http://www.w3.org/TR/2001/REC-SVG-20010904/DTD/svg10.dtd">
<svg version="1.0" xmlns="http://www.w3.org/2000/svg"
 width="300.000000pt" height="73.000000pt" viewBox="0 0 300.000000 73.000000"
 preserveAspectRatio="xMidYMid meet">
<metadata>
Created by potrace 1.10, written by Peter Selinger 2001-2011
</metadata>
<g transform="translate(0.000000,73.000000) scale(0.100000,-0.100000)"
fill="#000000" stroke="none">
<path d="M1493 723 l1497 -3 0 -355 0 -355 -1497 -3 -1498 -2 1503 -3 1502 -2
0 365 0 365 -1502 -2 -1503 -3 1498 -2z"/>
<path d="M140 534 c13 -33 13 -345 0 -378 l-10 -26 70 0 70 0 -20 20 c-20 20
-21 31 -18 215 l3 195 -52 0 c-52 0 -52 0 -43 -26z"/>
<path d="M345 538 c34 -30 43 -85 21 -129 -9 -18 -15 -34 -13 -35 10 -10 79
21 97 43 41 52 12 107 -68 131 -57 17 -66 15 -37 -10z"/>
<path d="M605 544 c-43 -22 -74 -53 -97 -98 -26 -51 -22 -153 8 -211 23 -44
82 -90 129 -101 l30 -7 -28 22 c-43 36 -59 77 -65 171 -5 106 9 163 53 207 37
37 23 45 -30 17z"/>
<path d="M735 549 c53 -33 75 -95 75 -207 0 -89 -23 -167 -56 -188 -35 -23
-23 -28 22 -9 56 23 100 70 114 121 17 60 8 169 -17 202 -32 43 -86 81 -123
87 -31 6 -33 5 -15 -6z m144 -181 c10 -27 4 -53 -15 -69 -12 -10 -14 -3 -14
40 0 53 15 68 29 29z"/>
<path d="M1025 543 c-54 -28 -85 -66 -102 -122 -37 -130 27 -260 142 -286 l30
-7 -27 24 c-39 34 -57 78 -64 155 -9 98 10 179 51 220 37 37 23 44 -30 16z
m-65 -200 c-1 -53 -2 -56 -15 -39 -18 23 -19 50 -5 77 17 30 20 23 20 -38z"/>
<path d="M1166 542 c44 -28 65 -87 65 -186 1 -104 -14 -162 -54 -199 l-32 -30
28 7 c47 11 102 54 127 98 34 61 33 170 -4 232 -29 49 -75 83 -127 92 l-34 6
31 -20z m124 -194 c0 -32 -3 -39 -10 -28 -13 20 -13 70 0 70 6 0 10 -19 10
-42z"/>
<path d="M1340 534 c13 -32 13 -329 1 -372 l-10 -32 60 0 c56 0 59 1 49 19 -6
12 -10 94 -10 196 0 102 4 184 10 196 10 18 7 19 -49 19 l-61 0 10 -26z"/>
<path d="M1550 539 c6 -11 8 -35 5 -52 l-6 -32 25 32 c15 17 39 41 54 52 l27
20 -58 1 c-55 0 -57 -1 -47 -21z"/>
<path d="M1832 538 c-24 -27 -42 -70 -42 -103 0 -32 41 -78 110 -125 99 -67
119 -111 73 -162 -28 -31 11 -22 45 10 39 37 48 73 30 120 -13 35 -26 47 -144
132 -63 45 -76 79 -46 120 27 36 7 42 -26 8z"/>
<path d="M1974 529 c14 -17 26 -40 27 -52 0 -17 4 -15 16 13 8 19 22 43 30 53
15 16 13 17 -41 17 l-58 0 26 -31z"/>
<path d="M2081 528 c5 -18 9 -100 9 -183 0 -83 -4 -165 -9 -183 l-10 -32 71 0
71 0 -21 23 c-21 22 -22 32 -22 215 l0 192 -49 0 -50 0 10 -32z"/>
<path d="M2298 538 c11 -13 24 -36 28 -53 l7 -30 15 35 c7 19 21 43 29 53 15
16 13 17 -42 17 l-58 0 21 -22z"/>
<path d="M2407 554 c7 -3 51 -50 98 -105 l87 -101 -4 -109 -3 -109 50 0 50 0
-3 127 -3 128 -38 40 c-61 64 -79 94 -74 115 5 19 0 20 -83 19 -49 0 -84 -3
-77 -5z"/>
<path d="M2700 545 c8 -10 10 -29 7 -53 l-6 -37 27 33 c15 18 41 41 57 52 l30
20 -64 0 c-55 0 -62 -2 -51 -15z"/>
<path d="M1486 373 l-29 -34 45 -47 c81 -85 100 -113 93 -139 -5 -23 -5 -23
80 -23 l86 0 -107 123 c-151 173 -134 161 -168 120z"/>
<path d="M2287 396 c-3 -8 -22 -20 -41 -27 -42 -15 -45 -24 -13 -33 12 -3 32
-15 45 -26 l22 -21 0 61 c0 60 -3 72 -13 46z"/>
<path d="M310 356 c0 -3 13 -12 30 -21 50 -26 75 -98 49 -146 -5 -11 -25 -29
-42 -39 l-32 -20 38 0 c74 0 127 46 127 110 0 42 -20 75 -58 94 -29 15 -112
31 -112 22z"/>
<path d="M1815 202 c-3 -15 -16 -37 -27 -49 l-21 -23 62 0 63 0 -26 31 c-14
17 -26 37 -26 44 0 27 -18 25 -25 -3z"/>
<path d="M2331 219 c-1 -9 -12 -33 -26 -53 l-24 -36 56 0 c53 0 55 1 40 18 -8
9 -22 33 -30 52 -9 19 -16 28 -16 19z"/>
</g>
</svg>
